<?xml version="1.0" encoding="UTF-8"?>
<svg id="Layer_1" data-name="Layer 1" xmlns="http://www.w3.org/2000/svg" width="1000" height="1000" viewBox="0 0 1000 1000">
  <rect x="2.894" y=".5" width="999" height="999" fill="#f4ede2" stroke-width="0"/>
  <g>
    <path d="M590.221,548.726c16.091-16.089,15.161-42.859-2.789-57.714-15.643-12.945-38.845-11.008-53.203,3.348l-15.05,15.048h0s-15.858,15.859-15.858,15.859c-18.184,18.184-42.067,27.272-65.95,27.272s-47.765-9.088-65.947-27.269c-36.362-36.367-36.362-95.533-.002-131.897l15.862-15.862c28.681-28.681,8.368-77.721-32.193-77.721h0c-25.144,0-45.528,20.384-45.528,45.528v289.822c0,25.144,20.384,45.528,45.528,45.528h84.333c12.075,0,23.655-4.797,32.193-13.335l118.606-118.608Z" fill="#7c0000" stroke-width="0"/>
    <path d="M560.578,299.791c-12.075,0-23.655,4.797-32.193,13.335l-118.605,118.605c-15.212,15.214-15.212,39.966.002,55.183,15.214,15.207,39.969,15.21,55.18-.003l15.859-15.859.002-.003,14.461-14.46c35.886-35.882,94.337-38.169,131.27-3.366,38.377,36.165,39.052,96.836,2.025,133.863l-15.861,15.861c-28.681,28.681-8.368,77.721,32.193,77.721h0c25.144,0,45.528-20.384,45.528-45.528v-289.822c0-25.144-20.384-45.528-45.528-45.528h-84.333Z" fill="#7c0000" stroke-width="0"/>
  </g>
</svg>